<?xml version="1.0" standalone="no"?>
<!DOCTYPE svg PUBLIC "-//W3C//DTD SVG 20010904//EN"
 "http://www.w3.org/TR/2001/REC-SVG-20010904/DTD/svg10.dtd">
<svg version="1.0" xmlns="http://www.w3.org/2000/svg"
 width="976.000000pt" height="976.000000pt" viewBox="0 0 976.000000 976.000000"
 preserveAspectRatio="xMidYMid meet">
<metadata>
Created by potrace 1.14, written by Peter Selinger 2001-2017
</metadata>
<g transform="translate(0.000000,976.000000) scale(0.100000,-0.100000)"
fill="#000000" stroke="none">
<path d="M3010 9694 c-771 -93 -1309 -454 -1606 -1079 -120 -252 -196 -544
-236 -900 -10 -97 -13 -640 -13 -2810 0 -2526 1 -2699 18 -2835 132 -1066 667
-1703 1593 -1895 284 -59 684 -75 979 -40 1050 125 1673 747 1829 1825 31 216
36 356 36 1088 l0 742 -744 0 -745 0 -4 -792 c-4 -758 -5 -797 -25 -890 -62
-288 -200 -448 -442 -514 -92 -25 -358 -26 -450 -1 -264 71 -400 238 -457 559
-17 98 -18 238 -18 2758 0 2129 3 2672 13 2740 44 288 147 458 334 549 118 57
216 75 387 68 79 -3 161 -12 195 -21 203 -56 337 -188 406 -399 51 -156 52
-181 57 -849 l5 -628 745 0 745 0 -5 653 c-4 658 -7 701 -47 938 -158 925
-705 1518 -1563 1693 -204 42 -369 56 -632 55 -135 -1 -290 -7 -355 -15z"/>
<path d="M4692 9487 c408 -245 692 -611 857 -1106 22 -68 41 -129 41 -136 0
-10 88 -14 408 -17 383 -5 412 -6 487 -27 258 -72 398 -237 467 -551 23 -104
23 -109 23 -815 0 -761 -1 -775 -52 -940 -89 -287 -275 -447 -582 -500 -70
-13 -259 -15 -1157 -15 l-1074 0 0 -659 0 -660 1058 -4 c1150 -4 1119 -3 1292
-62 250 -85 413 -284 485 -592 47 -198 48 -219 55 -1413 6 -933 10 -1156 23
-1255 18 -137 45 -267 80 -375 l24 -75 737 -3 c405 -1 736 0 736 3 0 3 -17 58
-39 123 -39 119 -72 269 -92 422 -7 55 -14 488 -19 1215 -8 1158 -10 1215 -51
1465 -102 613 -360 1014 -796 1237 -62 32 -113 60 -113 63 0 3 26 18 58 34 97
47 243 150 335 236 302 283 469 664 532 1210 35 308 29 1330 -10 1625 -126
955 -641 1468 -1606 1599 -217 30 -438 36 -1323 36 l-889 0 105 -63z"/>
<path d="M5500 1318 c-182 -450 -451 -767 -846 -998 l-69 -40 478 0 477 0 0
560 c0 308 -1 560 -3 560 -2 0 -18 -37 -37 -82z"/>
</g>
</svg>
